<svg width="1440" height="427" viewBox="0 0 1440 427" fill="none" xmlns="http://www.w3.org/2000/svg">
<g clip-path="url(#clip0_4007_39)">
<mask id="mask0_4007_39" style="mask-type:luminance" maskUnits="userSpaceOnUse" x="0" y="0" width="1440" height="427">
<path d="M1440 0H0V427H1440V0Z" fill="white"/>
</mask>
<g mask="url(#mask0_4007_39)">
<path d="M1440 1C1350 1 1350 32.3412 1260 32.3412C1170 32.3412 1169.99 1 1080 1C989.999 1 989.992 32.3412 899.994 32.3412C809.997 32.3412 809.99 1 719.992 1C629.995 1 629.995 32.3412 539.998 32.3412C450.001 32.3412 450.001 1 359.996 1C269.992 1 269.999 32.3412 179.994 32.3412C89.9897 32.3412 89.9972 1 0 1V426.183H1440V1Z" fill="black"/>
<path d="M0 1C89.9972 1 89.9972 32.3412 180.002 32.3412C270.007 32.3412 269.999 1 359.996 1C449.993 1 449.993 32.3412 539.998 32.3412C630.003 32.3412 629.995 1 719.992 1C809.99 1 809.99 32.3412 899.994 32.3412C989.999 32.3412 989.992 1 1080 1C1170 1 1170 32.3412 1260 32.3412C1350 32.3412 1350 1 1440 1" stroke="#F9F8F8" stroke-width="2" stroke-miterlimit="10"/>
<path d="M0 136.602C89.9972 136.602 89.9972 167.943 180.002 167.943C270.007 167.943 269.999 136.602 359.996 136.602C449.993 136.602 449.993 167.943 539.998 167.943C630.003 167.943 629.995 136.602 719.992 136.602C809.99 136.602 809.99 167.943 899.994 167.943C989.999 167.943 989.992 136.602 1080 136.602C1170 136.602 1170 167.943 1260 167.943C1350 167.943 1350 136.602 1440 136.602" stroke="#F9F8F8" stroke-width="2" stroke-miterlimit="10"/>
</g>
</g>
<defs>
<clipPath id="clip0_4007_39">
<rect width="1440" height="427" fill="white"/>
</clipPath>
</defs>
</svg>
