<svg width="343" height="990" viewBox="0 0 343 990" fill="none" xmlns="http://www.w3.org/2000/svg">
<mask id="mask0_2204_1282" style="mask-type:alpha" maskUnits="userSpaceOnUse" x="0" y="0" width="343" height="990">
<rect width="343" height="990" fill="#C4C4C4"/>
</mask>
<g mask="url(#mask0_2204_1282)">
<path d="M313.016 333.665C296.834 292.64 274.45 254.435 246.485 220.122C207.326 172.077 157.834 132.342 99.3842 102.013C55.7696 79.3775 7.44598 62.1575 -44.2398 50.8025C-92.0598 40.325 -142.088 35 -192.941 35C-243.794 35 -293.822 40.325 -341.642 50.81C-393.328 62.165 -441.655 79.385 -485.266 102.02C-543.712 132.343 -593.201 172.085 -632.36 220.13C-660.329 254.443 -682.716 292.64 -698.898 333.68C-718.789 384.133 -728.875 437.33 -728.875 491.817C-728.875 546.305 -718.789 599.51 -698.895 649.963C-682.713 690.995 -660.329 729.193 -632.356 763.505C-593.197 811.55 -543.709 851.285 -485.263 881.615C-441.652 904.25 -393.324 921.47 -341.639 932.825C-293.819 943.325 -243.791 948.635 -192.938 948.635C-142.084 948.635 -92.0562 943.325 -44.2363 932.825C7.44952 921.47 55.7769 904.25 99.3914 881.615C157.834 851.292 207.326 811.55 246.485 763.505C274.45 729.193 296.834 690.995 313.016 649.955C332.91 599.51 343 546.305 343 491.817C343 437.33 332.91 384.125 313.016 333.672V333.665ZM240.511 564.995C238.796 570.777 237.017 575.922 235.359 580.37C235.127 585.425 234.769 590.997 234.226 596.893C231.961 621.448 227.162 643.145 219.959 661.415C210.073 686.495 198.2 698.577 189.24 705.417C184.337 721.745 176.684 742.198 164.186 757.535C148.333 776.983 132.159 783.32 119.164 788.42C113.108 790.79 107.384 793.04 103.636 795.912C101.764 797.375 96.7903 803.652 93.1602 808.242C82.6201 821.555 68.1783 839.795 49.8243 849.312C37.6478 855.628 26.3682 856.355 18.9401 856.355C14.5025 856.355 10.3651 856.07 6.37054 855.785C3.00488 855.545 -0.171448 855.32 -3.01904 855.32C-6.17395 855.32 -8.61072 855.62 -10.2721 856.182C-12.8875 857.097 -18.9543 862.025 -23.8313 865.985C-35.3825 875.367 -49.7565 887.038 -67.1351 890.848C-71.269 891.755 -75.5922 892.22 -79.9833 892.22C-91.6989 892.22 -102.328 889.047 -111.7 886.25C-118.349 884.27 -124.627 882.402 -129.179 882.402C-129.661 882.402 -130.118 882.425 -130.533 882.462C-134.606 882.89 -141.495 886.46 -148.162 889.917C-160.424 896.277 -175.677 904.182 -192.938 904.182C-210.198 904.182 -225.451 896.27 -237.713 889.917C-244.377 886.467 -251.269 882.89 -255.335 882.462C-255.753 882.425 -256.217 882.402 -256.7 882.402C-261.252 882.402 -267.529 884.27 -274.175 886.25C-283.55 889.047 -294.176 892.22 -305.888 892.22C-310.283 892.22 -314.606 891.755 -318.743 890.848C-336.119 887.038 -350.496 875.367 -362.047 865.985C-366.924 862.025 -372.991 857.097 -375.614 856.182C-377.264 855.612 -379.705 855.32 -382.859 855.32C-385.707 855.32 -388.887 855.553 -392.253 855.785C-396.247 856.063 -400.381 856.355 -404.819 856.355C-412.247 856.355 -423.526 855.628 -435.699 849.312C-454.057 839.787 -468.495 821.555 -479.039 808.242C-482.669 803.652 -487.642 797.39 -489.507 795.912C-493.255 793.04 -498.983 790.797 -505.039 788.42C-518.034 783.327 -534.208 776.99 -550.061 757.535C-562.559 742.205 -570.216 721.745 -575.115 705.417C-584.072 698.57 -595.945 686.495 -605.834 661.415C-613.037 643.145 -617.836 621.448 -620.101 596.893C-620.648 590.99 -620.998 585.417 -621.234 580.37C-622.892 575.922 -624.671 570.785 -626.386 564.995C-633.196 542.06 -636.651 517.437 -636.651 491.817C-636.651 466.197 -633.196 441.582 -626.386 418.64C-624.671 412.857 -622.892 407.712 -621.234 403.265C-620.998 398.21 -620.648 392.652 -620.101 386.75C-617.836 362.195 -613.037 340.483 -605.834 322.22C-595.948 297.147 -584.075 285.057 -575.115 278.225C-570.212 261.89 -562.559 241.43 -550.061 226.1C-534.208 206.652 -518.034 200.315 -505.039 195.215C-498.983 192.845 -493.259 190.595 -489.511 187.722C-487.639 186.26 -482.665 179.982 -479.035 175.393C-468.488 162.08 -454.046 143.84 -435.699 134.322C-423.523 128.007 -412.243 127.28 -404.815 127.28C-400.377 127.28 -396.247 127.565 -392.246 127.85C-388.88 128.09 -385.703 128.315 -382.856 128.315C-379.697 128.315 -377.264 128.03 -375.603 127.452C-372.987 126.537 -366.921 121.61 -362.044 117.65C-350.492 108.268 -336.119 96.5975 -318.74 92.7875C-314.606 91.88 -310.283 91.415 -305.892 91.415C-294.176 91.415 -283.547 94.5875 -274.175 97.385C-267.526 99.365 -261.248 101.233 -256.696 101.233C-256.214 101.233 -255.757 101.21 -255.342 101.173C-251.269 100.745 -244.38 97.175 -237.713 93.7175C-225.451 87.3575 -210.198 79.4525 -192.938 79.4525C-175.677 79.4525 -160.424 87.365 -148.162 93.7175C-141.498 97.1675 -134.606 100.745 -130.54 101.173C-130.118 101.21 -129.665 101.233 -129.179 101.233C-124.623 101.233 -118.349 99.365 -111.7 97.385C-102.325 94.5875 -91.6989 91.415 -79.9833 91.415C-75.5958 91.415 -71.2725 91.88 -67.1351 92.7875C-49.76 96.5975 -35.3825 108.268 -23.8313 117.65C-18.9543 121.61 -12.8875 126.537 -10.265 127.452C-8.61072 128.03 -6.17395 128.315 -3.01904 128.315C-0.171448 128.315 3.00488 128.083 6.37415 127.85C10.3687 127.573 14.5025 127.28 18.9401 127.28C26.3682 127.28 37.6478 128.007 49.8243 134.322C68.1783 143.847 82.613 162.08 93.1602 175.393C96.7903 179.982 101.764 186.26 103.629 187.722C107.384 190.595 113.104 192.845 119.16 195.215C132.155 200.307 148.33 206.645 164.183 226.1C176.681 241.43 184.338 261.89 189.236 278.225C198.193 285.057 210.066 297.147 219.956 322.22C227.155 340.49 231.957 362.188 234.223 386.742C234.769 392.645 235.119 398.217 235.355 403.265C237.013 407.712 238.792 412.842 240.507 418.64C247.317 441.582 250.772 466.197 250.772 491.817C250.772 517.437 247.317 542.06 240.507 564.995H240.511Z" fill="#F0C31A"/>
<path d="M184.005 446.135C181.086 431.548 184.319 407.728 178.799 393.74C173.622 380.615 161.21 381.073 153.885 368.9C147.468 358.243 145.207 332.728 137.225 322.933C123.365 305.93 103.507 307.055 85.2781 293.053C69.8181 281.18 55.4086 252.755 36.9973 243.208C31.2628 240.23 25.196 239.435 18.9398 239.435C11.7939 239.435 4.40161 240.47 -3.01935 240.47C-8.3573 240.47 -13.7131 239.93 -19.0081 238.093C-36.5154 232.003 -53.6619 208.513 -72.6912 204.335C-75.1101 203.81 -77.5397 203.578 -79.9872 203.578C-95.9938 203.578 -112.658 213.395 -129.186 213.395C-130.519 213.395 -131.855 213.328 -133.188 213.185C-152.882 211.145 -172.697 191.615 -192.948 191.615C-213.2 191.615 -233.015 211.145 -252.709 213.185C-254.042 213.328 -255.374 213.395 -256.711 213.395C-273.239 213.395 -289.903 203.578 -305.91 203.578C-308.357 203.578 -310.787 203.81 -313.206 204.335C-332.235 208.513 -349.378 232.003 -366.889 238.093C-372.184 239.93 -377.532 240.47 -382.878 240.47C-390.298 240.47 -397.691 239.435 -404.837 239.435C-411.089 239.435 -417.16 240.23 -422.894 243.208C-441.302 252.763 -455.711 281.188 -471.175 293.053C-489.404 307.055 -509.262 305.93 -523.122 322.933C-531.104 332.735 -533.365 358.243 -539.782 368.9C-547.107 381.08 -559.519 380.623 -564.696 393.74C-570.213 407.728 -566.979 431.548 -569.902 446.135C-573.139 462.29 -583.243 475.168 -583.243 491.81C-583.243 508.453 -573.139 521.33 -569.902 537.485C-566.983 552.073 -570.216 575.893 -564.696 589.88C-559.519 603.005 -547.107 602.548 -539.782 614.72C-533.365 625.385 -531.104 650.893 -523.122 660.688C-509.262 677.69 -489.404 676.565 -471.175 690.568C-455.715 702.44 -441.305 730.865 -422.894 740.413C-417.156 743.39 -411.093 744.185 -404.837 744.185C-397.691 744.185 -390.298 743.15 -382.874 743.15C-377.536 743.15 -372.18 743.69 -366.892 745.528C-349.385 751.618 -332.239 775.108 -313.209 779.285C-310.79 779.81 -308.361 780.043 -305.91 780.043C-289.907 780.043 -273.243 770.225 -256.714 770.225C-255.382 770.225 -254.045 770.293 -252.713 770.435C-233.019 772.475 -213.203 792.013 -192.952 792.013C-172.701 792.013 -152.885 772.475 -133.191 770.435C-131.859 770.293 -130.522 770.225 -129.19 770.225C-112.661 770.225 -95.9973 780.043 -79.9907 780.043C-77.5432 780.043 -75.1136 779.81 -72.6948 779.285C-53.6654 775.108 -36.5225 751.618 -19.0117 745.528C-13.7166 743.69 -8.36084 743.15 -3.02289 743.15C4.39807 743.15 11.7904 744.185 18.9363 744.185C25.1924 744.185 31.2593 743.39 36.9938 740.413C55.4014 730.865 69.811 702.433 85.2746 690.568C103.504 676.565 123.362 677.69 137.221 660.688C145.203 650.9 147.465 625.378 153.882 614.72C161.206 602.54 173.618 602.998 178.796 589.88C184.312 575.893 181.079 552.073 184.001 537.485C187.238 521.33 197.343 508.453 197.343 491.81C197.343 475.168 187.238 462.29 184.001 446.135H184.005ZM115.516 566.188C110.832 580.408 104.858 592.655 97.7548 602.593C91.0377 611.998 83.5632 619.13 74.2415 625.025C64.3445 631.295 53.1398 635.653 40.1665 640.708C36.2363 642.238 32.181 643.813 28.0329 645.5C26.3393 646.513 22.1448 650.09 19.0542 652.7C7.43866 662.578 -8.47516 676.093 -28.2405 680.518C-31.9814 681.35 -35.8795 681.778 -39.8275 681.778C-50.8571 681.778 -60.6076 678.605 -69.204 675.8C-74.7599 673.993 -80.0049 672.29 -83.3635 672.275C-83.61 672.275 -83.8315 672.298 -84.0316 672.313C-86.0682 672.808 -91.5312 676.13 -95.5293 678.56C-106.991 685.513 -121.251 694.183 -138.39 695.203C-139.423 695.263 -140.477 695.293 -141.52 695.293C-156.208 695.293 -169.053 689.203 -179.368 684.305C-184.088 682.055 -190.547 678.995 -192.941 678.995C-195.335 678.995 -201.795 682.063 -206.511 684.305C-216.83 689.203 -229.671 695.293 -244.363 695.293C-245.402 695.293 -246.453 695.263 -247.485 695.203C-264.628 694.175 -278.891 685.513 -290.346 678.56C-294.348 676.13 -299.807 672.808 -301.844 672.313C-302.001 672.29 -302.223 672.275 -302.512 672.275C-305.867 672.275 -311.116 673.985 -316.675 675.8C-325.271 678.605 -335.022 681.778 -346.048 681.778C-349.996 681.778 -353.898 681.35 -357.642 680.518C-377.407 676.1 -393.318 662.578 -404.937 652.708C-408.024 650.083 -412.218 646.52 -413.908 645.493C-418.057 643.798 -422.112 642.23 -426.042 640.7C-439.015 635.645 -450.22 631.288 -460.117 625.018C-469.446 619.115 -476.92 611.998 -483.637 602.585C-490.737 592.648 -496.711 580.4 -501.391 566.18C-508.648 544.153 -512.482 518.435 -512.482 491.81C-512.482 465.185 -508.648 439.475 -501.395 417.44C-496.711 403.22 -490.737 390.973 -483.634 381.035C-476.917 371.63 -469.442 364.498 -460.12 358.603C-450.223 352.348 -439.019 347.975 -426.042 342.92C-422.119 341.398 -418.06 339.815 -413.912 338.135C-412.215 337.108 -408.024 333.545 -404.933 330.92C-393.318 321.05 -377.404 307.528 -357.638 303.103C-353.898 302.27 -350 301.843 -346.044 301.843C-335.018 301.843 -325.271 305.023 -316.671 307.82C-311.116 309.628 -305.871 311.345 -302.512 311.345C-302.265 311.345 -302.044 311.338 -301.844 311.315C-299.807 310.805 -294.344 307.483 -290.346 305.06C-278.884 298.108 -264.625 289.438 -247.485 288.418C-246.453 288.358 -245.399 288.328 -244.356 288.328C-229.664 288.328 -216.823 294.418 -206.508 299.323C-201.788 301.558 -195.328 304.625 -192.934 304.625C-190.54 304.625 -184.08 301.558 -179.361 299.323C-169.046 294.418 -156.208 288.328 -141.513 288.328C-140.473 288.328 -139.423 288.358 -138.39 288.418C-121.247 289.445 -106.984 298.108 -95.5293 305.06C-91.5276 307.49 -86.0682 310.813 -84.0316 311.315C-83.8744 311.323 -83.6529 311.345 -83.3635 311.345C-80.0085 311.345 -74.7599 309.635 -69.2004 307.82C-60.604 305.015 -50.8536 301.843 -39.8275 301.843C-35.8795 301.843 -31.9778 302.27 -28.2334 303.103C-8.46802 307.528 7.4422 321.043 19.0613 330.92C22.1483 333.538 26.3429 337.1 28.0329 338.12C32.181 339.815 36.2363 341.383 40.1665 342.913C53.1398 347.968 64.3445 352.325 74.2415 358.595C83.5703 364.498 91.0449 371.63 97.762 381.028C104.861 390.965 110.839 403.213 115.523 417.433C122.776 439.46 126.61 465.178 126.61 491.803C126.61 518.428 122.776 544.145 115.523 566.173L115.516 566.188Z" fill="#F0C31A"/>
</g>
</svg>
