<svg width="342" height="990" viewBox="0 0 342 990" fill="none" xmlns="http://www.w3.org/2000/svg">
<mask id="mask0_2204_1288" style="mask-type:alpha" maskUnits="userSpaceOnUse" x="0" y="0" width="342" height="990">
<rect width="342" height="990" transform="matrix(-1 0 0 1 342 0)" fill="#C4C4C4"/>
</mask>
<g mask="url(#mask0_2204_1288)">
<path d="M29.9839 333.665C46.1656 292.64 68.5499 254.435 96.5151 220.122C135.674 172.077 185.166 132.342 243.616 102.013C287.23 79.3775 335.554 62.1575 387.24 50.8025C435.06 40.325 485.088 35 535.941 35C586.794 35 636.822 40.325 684.642 50.81C736.328 62.165 784.655 79.385 828.266 102.02C886.712 132.343 936.201 172.085 975.36 220.13C1003.33 254.443 1025.72 292.64 1041.9 333.68C1061.79 384.133 1071.88 437.33 1071.88 491.817C1071.88 546.305 1061.79 599.51 1041.89 649.963C1025.71 690.995 1003.33 729.193 975.356 763.505C936.197 811.55 886.709 851.285 828.263 881.615C784.652 904.25 736.324 921.47 684.639 932.825C636.819 943.325 586.791 948.635 535.938 948.635C485.084 948.635 435.056 943.325 387.236 932.825C335.55 921.47 287.223 904.25 243.609 881.615C185.166 851.292 135.674 811.55 96.5151 763.505C68.5499 729.193 46.1656 690.995 29.9839 649.955C10.0898 599.51 0 546.305 0 491.817C0 437.33 10.0898 384.125 29.9839 333.672V333.665ZM102.489 564.995C104.204 570.777 105.983 575.922 107.641 580.37C107.873 585.425 108.231 590.997 108.774 596.893C111.039 621.448 115.838 643.145 123.041 661.415C132.927 686.495 144.8 698.577 153.76 705.417C158.663 721.745 166.316 742.198 178.814 757.535C194.667 776.983 210.841 783.32 223.836 788.42C229.892 790.79 235.616 793.04 239.364 795.912C241.236 797.375 246.21 803.652 249.84 808.242C260.38 821.555 274.822 839.795 293.176 849.312C305.352 855.628 316.632 856.355 324.06 856.355C328.497 856.355 332.635 856.07 336.629 855.785C339.995 855.545 343.171 855.32 346.019 855.32C349.174 855.32 351.611 855.62 353.272 856.182C355.888 857.097 361.954 862.025 366.831 865.985C378.383 875.367 392.756 887.038 410.135 890.848C414.269 891.755 418.592 892.22 422.983 892.22C434.699 892.22 445.328 889.047 454.7 886.25C461.349 884.27 467.627 882.402 472.179 882.402C472.661 882.402 473.118 882.425 473.533 882.462C477.606 882.89 484.495 886.46 491.162 889.917C503.424 896.277 518.677 904.182 535.938 904.182C553.198 904.182 568.451 896.27 580.713 889.917C587.377 886.467 594.269 882.89 598.335 882.462C598.753 882.425 599.217 882.402 599.7 882.402C604.252 882.402 610.529 884.27 617.175 886.25C626.55 889.047 637.176 892.22 648.888 892.22C653.283 892.22 657.606 891.755 661.743 890.848C679.119 887.038 693.496 875.367 705.047 865.985C709.924 862.025 715.991 857.097 718.614 856.182C720.264 855.612 722.705 855.32 725.859 855.32C728.707 855.32 731.887 855.553 735.253 855.785C739.247 856.063 743.381 856.355 747.819 856.355C755.247 856.355 766.526 855.628 778.699 849.312C797.057 839.787 811.495 821.555 822.039 808.242C825.669 803.652 830.642 797.39 832.507 795.912C836.255 793.04 841.983 790.797 848.039 788.42C861.034 783.327 877.208 776.99 893.061 757.535C905.559 742.205 913.216 721.745 918.115 705.417C927.072 698.57 938.945 686.495 948.834 661.415C956.037 643.145 960.836 621.448 963.101 596.893C963.648 590.99 963.998 585.417 964.234 580.37C965.892 575.922 967.671 570.785 969.386 564.995C976.196 542.06 979.651 517.437 979.651 491.817C979.651 466.197 976.196 441.582 969.386 418.64C967.671 412.857 965.892 407.712 964.234 403.265C963.998 398.21 963.648 392.652 963.101 386.75C960.836 362.195 956.037 340.483 948.834 322.22C938.948 297.147 927.075 285.057 918.115 278.225C913.212 261.89 905.559 241.43 893.061 226.1C877.208 206.652 861.034 200.315 848.039 195.215C841.983 192.845 836.259 190.595 832.511 187.722C830.639 186.26 825.665 179.982 822.035 175.393C811.488 162.08 797.046 143.84 778.699 134.322C766.523 128.007 755.243 127.28 747.815 127.28C743.377 127.28 739.247 127.565 735.246 127.85C731.88 128.09 728.703 128.315 725.856 128.315C722.697 128.315 720.264 128.03 718.603 127.452C715.987 126.537 709.921 121.61 705.044 117.65C693.492 108.268 679.119 96.5975 661.74 92.7875C657.606 91.88 653.283 91.415 648.892 91.415C637.176 91.415 626.547 94.5875 617.175 97.385C610.526 99.365 604.248 101.233 599.696 101.233C599.214 101.233 598.757 101.21 598.342 101.173C594.269 100.745 587.38 97.175 580.713 93.7175C568.451 87.3575 553.198 79.4525 535.938 79.4525C518.677 79.4525 503.424 87.365 491.162 93.7175C484.498 97.1675 477.606 100.745 473.54 101.173C473.118 101.21 472.665 101.233 472.179 101.233C467.623 101.233 461.349 99.365 454.7 97.385C445.325 94.5875 434.699 91.415 422.983 91.415C418.596 91.415 414.273 91.88 410.135 92.7875C392.76 96.5975 378.383 108.268 366.831 117.65C361.954 121.61 355.888 126.537 353.265 127.452C351.611 128.03 349.174 128.315 346.019 128.315C343.171 128.315 339.995 128.083 336.626 127.85C332.631 127.573 328.497 127.28 324.06 127.28C316.632 127.28 305.352 128.007 293.176 134.322C274.822 143.847 260.387 162.08 249.84 175.393C246.21 179.982 241.236 186.26 239.371 187.722C235.616 190.595 229.896 192.845 223.84 195.215C210.845 200.307 194.67 206.645 178.817 226.1C166.319 241.43 158.662 261.89 153.764 278.225C144.807 285.057 132.934 297.147 123.044 322.22C115.845 340.49 111.043 362.188 108.777 386.742C108.231 392.645 107.881 398.217 107.645 403.265C105.987 407.712 104.208 412.842 102.493 418.64C95.6827 441.582 92.2276 466.197 92.2276 491.817C92.2276 517.437 95.6827 542.06 102.493 564.995H102.489Z" fill="#F0C31A"/>
<path d="M158.995 446.135C161.914 431.548 158.681 407.728 164.201 393.74C169.378 380.615 181.79 381.073 189.115 368.9C195.532 358.243 197.793 332.728 205.775 322.933C219.635 305.93 239.493 307.055 257.722 293.053C273.182 281.18 287.591 252.755 306.003 243.208C311.737 240.23 317.804 239.435 324.06 239.435C331.206 239.435 338.598 240.47 346.019 240.47C351.357 240.47 356.713 239.93 362.008 238.093C379.515 232.003 396.662 208.513 415.691 204.335C418.11 203.81 420.54 203.578 422.987 203.578C438.994 203.578 455.658 213.395 472.186 213.395C473.519 213.395 474.855 213.328 476.188 213.185C495.882 211.145 515.697 191.615 535.948 191.615C556.2 191.615 576.015 211.145 595.709 213.185C597.042 213.328 598.374 213.395 599.711 213.395C616.239 213.395 632.903 203.578 648.91 203.578C651.357 203.578 653.787 203.81 656.206 204.335C675.235 208.513 692.378 232.003 709.889 238.093C715.184 239.93 720.532 240.47 725.878 240.47C733.298 240.47 740.691 239.435 747.837 239.435C754.089 239.435 760.16 240.23 765.894 243.208C784.302 252.763 798.711 281.188 814.175 293.053C832.404 307.055 852.262 305.93 866.122 322.933C874.104 332.735 876.365 358.243 882.782 368.9C890.107 381.08 902.519 380.623 907.696 393.74C913.213 407.728 909.979 431.548 912.902 446.135C916.139 462.29 926.243 475.168 926.243 491.81C926.243 508.453 916.139 521.33 912.902 537.485C909.983 552.073 913.216 575.893 907.696 589.88C902.519 603.005 890.107 602.548 882.782 614.72C876.365 625.385 874.104 650.893 866.122 660.688C852.262 677.69 832.404 676.565 814.175 690.568C798.715 702.44 784.305 730.865 765.894 740.413C760.156 743.39 754.093 744.185 747.837 744.185C740.691 744.185 733.298 743.15 725.874 743.15C720.536 743.15 715.18 743.69 709.892 745.528C692.385 751.618 675.239 775.108 656.209 779.285C653.79 779.81 651.361 780.043 648.91 780.043C632.907 780.043 616.243 770.225 599.714 770.225C598.382 770.225 597.045 770.293 595.713 770.435C576.019 772.475 556.203 792.013 535.952 792.013C515.701 792.013 495.885 772.475 476.191 770.435C474.859 770.293 473.522 770.225 472.19 770.225C455.661 770.225 438.997 780.043 422.991 780.043C420.543 780.043 418.114 779.81 415.695 779.285C396.665 775.108 379.523 751.618 362.012 745.528C356.717 743.69 351.361 743.15 346.023 743.15C338.602 743.15 331.21 744.185 324.064 744.185C317.808 744.185 311.741 743.39 306.006 740.413C287.599 730.865 273.189 702.433 257.725 690.568C239.496 676.565 219.638 677.69 205.779 660.688C197.797 650.9 195.535 625.378 189.118 614.72C181.794 602.54 169.382 602.998 164.204 589.88C158.688 575.893 161.921 552.073 158.999 537.485C155.762 521.33 145.657 508.453 145.657 491.81C145.657 475.168 155.762 462.29 158.999 446.135H158.995ZM227.484 566.188C232.168 580.408 238.142 592.655 245.245 602.593C251.962 611.998 259.437 619.13 268.759 625.025C278.656 631.295 289.86 635.653 302.833 640.708C306.764 642.238 310.819 643.813 314.967 645.5C316.661 646.513 320.855 650.09 323.946 652.7C335.561 662.578 351.475 676.093 371.241 680.518C374.981 681.35 378.879 681.778 382.828 681.778C393.857 681.778 403.608 678.605 412.204 675.8C417.76 673.993 423.005 672.29 426.363 672.275C426.61 672.275 426.832 672.298 427.032 672.313C429.068 672.808 434.531 676.13 438.529 678.56C449.991 685.513 464.251 694.183 481.39 695.203C482.423 695.263 483.477 695.293 484.52 695.293C499.208 695.293 512.053 689.203 522.368 684.305C527.088 682.055 533.547 678.995 535.941 678.995C538.335 678.995 544.795 682.063 549.511 684.305C559.83 689.203 572.671 695.293 587.363 695.293C588.402 695.293 589.453 695.263 590.485 695.203C607.628 694.175 621.891 685.513 633.346 678.56C637.348 676.13 642.807 672.808 644.844 672.313C645.001 672.29 645.223 672.275 645.512 672.275C648.867 672.275 654.116 673.985 659.675 675.8C668.271 678.605 678.022 681.778 689.048 681.778C692.996 681.778 696.898 681.35 700.642 680.518C720.407 676.1 736.318 662.578 747.937 652.708C751.024 650.083 755.218 646.52 756.908 645.493C761.057 643.798 765.112 642.23 769.042 640.7C782.015 635.645 793.22 631.288 803.117 625.018C812.446 619.115 819.92 611.998 826.637 602.585C833.737 592.648 839.711 580.4 844.391 566.18C851.648 544.153 855.482 518.435 855.482 491.81C855.482 465.185 851.648 439.475 844.395 417.44C839.711 403.22 833.737 390.973 826.634 381.035C819.917 371.63 812.442 364.498 803.12 358.603C793.223 352.348 782.019 347.975 769.042 342.92C765.119 341.398 761.06 339.815 756.912 338.135C755.215 337.108 751.024 333.545 747.933 330.92C736.318 321.05 720.404 307.528 700.638 303.103C696.898 302.27 693 301.843 689.044 301.843C678.018 301.843 668.271 305.023 659.671 307.82C654.116 309.628 648.871 311.345 645.512 311.345C645.265 311.345 645.044 311.338 644.844 311.315C642.807 310.805 637.344 307.483 633.346 305.06C621.884 298.108 607.625 289.438 590.485 288.418C589.453 288.358 588.399 288.328 587.356 288.328C572.664 288.328 559.823 294.418 549.508 299.323C544.788 301.558 538.328 304.625 535.934 304.625C533.54 304.625 527.08 301.558 522.361 299.323C512.046 294.418 499.208 288.328 484.513 288.328C483.473 288.328 482.423 288.358 481.39 288.418C464.247 289.445 449.984 298.108 438.529 305.06C434.528 307.49 429.068 310.813 427.032 311.315C426.874 311.323 426.653 311.345 426.363 311.345C423.009 311.345 417.76 309.635 412.2 307.82C403.604 305.015 393.854 301.843 382.828 301.843C378.879 301.843 374.978 302.27 371.233 303.103C351.468 307.528 335.558 321.043 323.939 330.92C320.852 333.538 316.657 337.1 314.967 338.12C310.819 339.815 306.764 341.383 302.833 342.913C289.86 347.968 278.656 352.325 268.759 358.595C259.43 364.498 251.955 371.63 245.238 381.028C238.139 390.965 232.161 403.213 227.477 417.433C220.224 439.46 216.39 465.178 216.39 491.803C216.39 518.428 220.224 544.145 227.477 566.173L227.484 566.188Z" fill="#F0C31A"/>
</g>
</svg>
